# xmcd
#
# Track frame offsets:
#	150
#	20863
#	45523
#	71631
#	102101
#	130300
#	156717
#	185714
#	212453
#	237856
#	264139
#
# Disc length: 3539 seconds
# Revision: 0
# Processed by: cddbd v1.5.2PL0 Copyright (c) Steve Scherf et al.
# Submitted via: dBpowerAMP V12.0
#
DISCID=9b0dd10b
DTITLE=Orchestre Tropicana d'Haiti - Pran sans nou
DYEAR=2009
DGENRE=World
TTITLE0=Aprann reflechi
TTITLE1=Decide'w
TTITLE2=Lanmou bèl
TTITLE3=Pran sans nou
TTITLE4=Je te désire
TTITLE5=Secret lanmou
TTITLE6=Chans
TTITLE7=Sa bèl
TTITLE8=Defi
TTITLE9=Vanite
TTITLE10=Indicatif musical de l'Orchestre Tropicana d'Haiti
EXTD=
EXTT0=
EXTT1=
EXTT2=
EXTT3=
EXTT4=
EXTT5=
EXTT6=
EXTT7=
EXTT8=
EXTT9=
EXTT10=
PLAYORDER=
